<svg width="10" height="10" viewBox="0 0 10 10" fill="none" xmlns="http://www.w3.org/2000/svg">
<path d="M8.95937 4.66112C9.06261 4.58421 9.13919 4.47692 9.17838 4.35429C9.21756 4.23166 9.21739 4.09984 9.17787 3.97732C9.13836 3.85479 9.06149 3.74771 8.95804 3.67108C8.8546 3.59444 8.72976 3.55211 8.60104 3.55001L6.10104 3.45556C6.08875 3.45471 6.07697 3.45033 6.06711 3.44294C6.05725 3.43554 6.04974 3.42546 6.04549 3.4139L5.1816 1.08056C5.13819 0.961851 5.05936 0.859345 4.95576 0.786922C4.85217 0.7145 4.72883 0.675659 4.60243 0.675659C4.47603 0.675659 4.35269 0.7145 4.2491 0.786922C4.1455 0.859345 4.06667 0.961851 4.02326 1.08056L3.16215 3.42223C3.1579 3.43379 3.15039 3.44388 3.14053 3.45127C3.13067 3.45866 3.11889 3.46305 3.1066 3.4639L0.606596 3.55834C0.477876 3.56044 0.353041 3.60278 0.249595 3.67941C0.146149 3.75604 0.0692798 3.86313 0.0297659 3.98565C-0.00974807 4.10817 -0.00992535 4.23999 0.0292589 4.36262C0.0684431 4.48525 0.145024 4.59254 0.248263 4.66945L2.20937 6.21112C2.21919 6.21884 2.22653 6.22927 2.23047 6.24112C2.23442 6.25297 2.23481 6.26572 2.2316 6.27779L1.5566 8.66945C1.52162 8.79124 1.52501 8.92085 1.5663 9.04065C1.6076 9.16044 1.68479 9.26461 1.78739 9.33897C1.88998 9.41334 2.013 9.4543 2.13969 9.45627C2.26639 9.45825 2.39062 9.42114 2.49549 9.35001L4.56771 7.96112C4.57792 7.95407 4.59003 7.9503 4.60243 7.9503C4.61483 7.9503 4.62695 7.95407 4.63715 7.96112L6.70937 9.35001C6.81282 9.42357 6.93661 9.4631 7.06354 9.4631C7.19048 9.4631 7.31426 9.42357 7.41771 9.35001C7.52033 9.27634 7.5976 9.17268 7.63889 9.0533C7.68017 8.93391 7.68345 8.80467 7.64826 8.68334L6.96771 6.28334C6.9641 6.27129 6.9643 6.25843 6.96828 6.24649C6.97226 6.23456 6.97982 6.22415 6.98993 6.21667L8.95937 4.66112Z" fill="#F09D12"/>
</svg>
